<?xml version="1.0" encoding="utf-8"?>
<!-- Generator: Adobe Illustrator 19.2.1, SVG Export Plug-In . SVG Version: 6.00 Build 0)  -->
<svg version="1.1" id="layer" xmlns="http://www.w3.org/2000/svg" xmlns:xlink="http://www.w3.org/1999/xlink" x="0px" y="0px"
	 viewBox="0 0 652 652" style="enable-background:new 0 0 652 652;" xml:space="preserve">
<style type="text/css">
	.st0{fill:#F72210;}
</style>
<g>
	<path class="st0" d="M109.8,292.9h-8.5v73.3H85.7l-38.1-50.1v33.5h8.5V366H20.8v-16.2h8.5v-56.9h-8.5v-16.4h26.7L83,323v-30.2h-8.5
		v-16.4h35.2L109.8,292.9L109.8,292.9z M166.1,334.1c0,1.4,0,2.7-0.2,4.1h-38.5c-1.1,12.4,3.6,16.1,10.8,16.1
		c5.9,0,10.5-3.9,10.5-10h16.7c-0.5,10.9-6.1,23.4-28.1,23.4S105,351.7,105,334.1c0-15.9,10.6-32.8,31.9-32.8
		C157.1,301.2,166.1,315.3,166.1,334.1 M262,317.9h-5.6l-14.3,48.2h-19l-8.9-26.4l-8,26.4h-19.4L170.6,318H165v-16.4h33.5v16.2h-8.5
		l8.8,25.6l11.5-41.9h10.3l14.1,41.9l7.6-25.6h-8.5v-16.2H262V317.9L262,317.9z M285.5,318.6c0,2.3,1.8,3.8,8.2,5.9l9.1,3
		c8.3,2.7,18.4,8.9,18.4,20.3c0,13.3-10,19.7-22.3,19.7c-9.9,0-17.4-4.9-19.6-7v5.3h-16.4v-22.1h16.1c0.5,7.3,7,11.1,12.9,11.1
		c4.9,0,7.1-2.1,7.1-4.6c0-3-1.8-4.7-9.9-7.3l-8-2.7c-8.2-2.6-17.3-8.6-17.3-19.4c0-13.2,11.7-19.9,21.7-19.9
		c10.3,0,15.3,2.9,17.9,5.8l0.2-5h16.1V322h-17c-0.3-5.5-5.6-7.9-10.9-7.9C287.4,314.1,285.5,316.1,285.5,318.6 M419.4,317.9h-5.6
		l-14.3,48.2h-19l-8.9-26.4l-8,26.4h-19.4L328.1,318h-5.6v-16.4H356v16.2h-8.5l8.8,25.6l11.5-41.9h10.3l14.1,42l7.6-25.6h-8.5v-16.4
		h28.1V317.9z M478.8,334c0,1.4,0,2.7-0.2,4.1h-38.5c-1.1,12.4,3.6,16.1,10.8,16.1c5.9,0,10.5-3.9,10.5-10h16.7
		c-0.5,10.9-6.1,23.4-28.1,23.4s-32.3-15.9-32.3-33.5c0-15.9,10.6-32.8,31.9-32.8C469.9,301,478.8,315.1,478.8,334 M542.4,333.8
		c0,1.4,0,2.7-0.2,4.1h-38.5c-1.1,12.4,3.6,16.1,10.8,16.1c5.9,0,10.5-3.9,10.5-10h16.7c-0.5,10.9-6.1,23.4-28.1,23.4
		c-22,0-32.3-15.9-32.3-33.5c0-15.9,10.6-32.8,31.9-32.8C533.4,300.9,542.4,315,542.4,333.8 M612.2,366h-19.4l-20.2-26.2l-6.5,4.9
		v5.2h5.8V366h-29.7v-16.2h5.6v-57.2h-8.5v-16.1h27v51.4l13.5-9.9h-8.5v-16.4h36.2V318h-5.6l-14.1,10.6l16.2,21.1h8.5L612.2,366
		L612.2,366z M620.8,362.3c0,0.8-0.2,1.4-0.6,1.8c-0.3,0.6-0.8,1.1-1.4,1.4c-0.6,0.3-1.2,0.6-2,0.6c-0.8,0-1.4-0.2-1.8-0.6
		c-0.6-0.3-1.1-0.8-1.4-1.4c-0.3-0.6-0.6-1.2-0.6-1.8c0-0.8,0.2-1.4,0.6-1.8c0.3-0.6,0.8-1.1,1.4-1.4c0.6-0.3,1.2-0.6,1.8-0.6
		c0.8,0,1.4,0.2,2,0.6c0.6,0.3,1.1,0.8,1.4,1.4C620.6,361.1,620.8,361.7,620.8,362.3 M619.3,364.4c0.6-0.6,0.9-1.4,0.9-2.1
		c0-0.9-0.3-1.5-0.9-2.1c-0.6-0.6-1.4-0.9-2.1-0.9s-1.5,0.3-2.1,0.9c-0.6,0.6-0.9,1.4-0.9,2.1c0,0.9,0.3,1.5,0.9,2.1
		c0.6,0.6,1.4,0.9,2.1,0.9S618.7,365,619.3,364.4 M617.8,362.6c0.2,0.2,0.3,0.2,0.3,0.2c0.2,0.2,0.3,0.3,0.3,0.5
		c0,0,0.3,0.5,0.6,1.2h-1.2c-0.5-0.8-0.6-1.2-0.8-1.4s-0.3-0.3-0.5-0.3h-0.2v1.7h-0.9v-3.9h1.8c0.6,0,0.9,0.2,1.1,0.3
		c0.3,0.3,0.3,0.5,0.3,0.9c0,0.3-0.2,0.6-0.3,0.8C618.2,362.3,618.1,362.5,617.8,362.6 M617.6,361.9c0.2-0.2,0.2-0.3,0.2-0.5
		s-0.2-0.3-0.2-0.5c-0.2-0.2-0.3-0.2-0.6-0.2h-0.5v1.1h0.5C617.3,362,617.5,362,617.6,361.9 M503.7,327.3h21.1
		c0-9.1-5.9-12.7-10.3-12.7C509.3,314.7,504,318.8,503.7,327.3 M440.2,327.4h21.1c0-9.1-5.9-12.7-10.3-12.7
		C445.9,314.7,440.6,318.9,440.2,327.4 M127.4,327.6h21.1c0-9.1-5.9-12.7-10.3-12.7C133.2,314.8,127.9,319.1,127.4,327.6"/>
</g>
</svg>
